<?xml version="1.0" encoding="UTF-8"?>
<svg id="Layer_1" xmlns="http://www.w3.org/2000/svg" version="1.1" viewBox="0 0 1282 341">
  <!-- Generator: Adobe Illustrator 29.0.1, SVG Export Plug-In . SVG Version: 2.1.0 Build 192)  -->
  <defs>
    <style>
      .st0 {
        fill: #075491;
      }

      .st1 {
        fill: #e7751d;
      }
    </style>
  </defs>
  <path class="st0" d="M212,17v12l-45,23.5c-5.4,7.2-1.6,14.6,7.2,15.3,12.7-5.9,24.6-14.3,37.7-18.8.2,3.6.6,6.7,4,9-8.1,6.9-20.1,10.2-28.7,15.8-1,.6-1.8-.1-1.3,2.2l31.5,16.7,23.5-11.6c0,4.6-.9,9.2-1,13l-16,8.7c-1.4,16.3,2,36,0,51.9-1.2,10.2-23.1,29.6-28,39.5-2.3,1.6-7.9-10-9-11,3.6-2.9,5.5-7.7,8-11,1.9-2.6,12.9-14.6,12.8-16.5-45.8-42.2-117.5-15.2-126.6,46.2-11.4,77.1,81.3,123.1,134.4,62.4,2.8-3.2,15.7-22.6,17-23,2.8-.9,4.1,4.6,6,7,14.3,17.4,40.4,17.5,54.4-.4,17.4-22.3,5.1-57.6-24-60.5-1.1-1.2,8.4-11.1,9.6-12.9,74.6,26.8,22.3,137.8-45.1,88.9-15.4,23.7-41.1,41.2-69.9,43-80.9,5.2-125.9-88-76.9-150.9,30.3-39,86.2-44.8,125.4-15.1-.5-3.5,1.2-11-1-13.5l-43.7-24.3-2.3-.2,1,9h-13V46c18.9-8.5,36.6-19.5,55.3-28.2,1.4-.6,3-.5,3.7-.8h0ZM211.8,102.2l-46.8-25.1c.5,3.2-1.1,9.1,1,11.5l45.5,25.5c.2-2.4,1.5-10,.3-11.8h0Z"/>
  <path class="st0" d="M967,104v124h-26c-.5,0,.3-7.9,0-9-4.2,1.7-6.9,5.3-11.3,7.2-22.2,9.6-51-2.4-59.2-25.2-13.5-37.7,18.4-77.1,57.8-62.8,4.1,1.5,6.9,4.2,10.7,5.8v-40h28,0ZM916.8,158.2c-29.5,1.1-28.5,48.9.7,48.5,29.8-.3,29.6-49.6-.7-48.5Z"/>
  <path class="st0" d="M852,111v17.5c0,2-23.5,24.8-26,29,3.7,1.4,8,1.8,11.6,3.4,18.9,8.3,25.4,33.8,13,50.7-16.1,22-53.5,21.1-76.6,11.9-4.5-1.8-8.5-4.7-13-6.6-.7-1,10.3-21.6,11.5-21.9,12.7,7.9,26.7,11.9,41.8,9.9,8.9-1.2,15.8-8.5,12.9-17.8-1.2-3.9-8.1-9.2-11.8-9.2h-21c-2.4,0-1.7-16.5-1-19l23.5-26h-50v-22h85Z"/>
  <path class="st0" d="M577,190c3,16.1,23,20.1,36.5,15,4.7-1.7,7.8-5.6,12.4-7,.6,4.6,13.9,12.5,12.9,16.3-1.3,4.9-16.3,11.7-21.1,13-35.4,9.2-72.7-11-68.8-50.8,4.8-48.9,80-54.3,93.5-12.5.8,2.6,3.1,12,3.5,14.5.3,1.9.6,11.5-1.5,11.5h-67.5ZM619,175c-1.6-24.7-38.2-24.8-43-1.5,0,1.7,20.1.4,22.6.5,6.5.1,13.6,2,20.5,1h0Z"/>
  <path class="st0" d="M697.8,136.3c34.8-4.2,61.8,16.9,58.2,53.2-3.8,37.9-54,51-81.9,29.9-33.5-25.4-17.8-78.1,23.7-83.1ZM692.3,202.7c9.3,7,25.4,5,32.1-4.7,11.3-16.4,1.5-40.9-19.8-39.9-9.5.5-20.5,9.8-21.3,19.6-.1,1.3-.1,8.5,0,9.7.4,4.5,5.4,12.5,9,15.3h0Z"/>
  <path class="st1" d="M269,149c6,1.6,3.5,10.3,4,15-1.2,1.5-2,2-3,3-2,2.1-1.7,2.2-3,4-17.1,23.9-65.8,87.2-92.2,96.3-50.4,17.3-92.2-37.9-65.9-82.9,18.2-31.3,59.7-36.8,86.2-12.3-2.5,3.3-4.4,8.1-8,11-20.3-20.3-57.2-13.5-68.2,13.3-14.1,34.5,17.8,71.1,53.2,56.2,23.2-9.8,76.7-78.1,95-100.5l1-1c.3-.3.4-1.3,1-2h0Z"/>
  <path class="st0" d="M436.7,136.3c5.8,2.5,4,1.1,9.2,2.1,7.9,1.5,22.2,12.8,22.9,21.5-4.5.5-18.4,11.3-21.4,11.1-.9,0-4.8-9.8-13.5-11.6-19.5-4.1-32.1,9.7-28.8,28.8,2.5,14.8,18.2,21.6,31.8,16.2,6.5-2.6,8.5-9.4,10.2-10.4,1.5-.8,9.5,3.5,11.6,4.6.8.4,5,3.7,5.5,3.9,1.6.8,5.8-.8,4.8,4.7-3.3,2.9-4.8,7.1-8,10.2-12.9,12.4-38.1,14.6-54.3,8.2-43.1-17.1-38.4-78.7,7-88.5,2.5-.5,21.9-1.4,23-1h0Z"/>
  <path class="st1" d="M212,17c1.2-.5,4.1-4.9,7-3.6l62.5,32.6.4,68.5c-.5,2.9-8.5,12.8-12,13.5V61l-18,9.7v79.9c.1,2.4-9.6,14.4-10.5,14.4-3.1-2.8-.6-7.5-.5-11.4.5-19.3-1.5-39.7-1-59.5,0-3.8,1-8.4,1-13,0-3.6.3-7.2-.2-10.8-7.1-4.2-14.8-7.4-21.9-11.6-1-.6-2.6-.4-2.9-.6-3.4-2.3-3.8-5.4-4-9-.5-6.4,0-13.5,0-20v-12h0ZM224,29v20c6,.8,16.6,10.3,21.7,10.8,2,.2,16.4-7.7,16.3-9.3-11-9.4-25.6-14-38-21.5Z"/>
  <path class="st1" d="M219,297c-.9-1.2,8.7-10.7,9.6-10.9.8-.1,12.4,6.2,15.6,7.2,82.5,25.5,126.8-89.6,58.5-132.5-1.7-1-8.4-3.5-8.6-3.9-1.1-1.6,6.8-12.3,10-11.6,13.5,3.3,32.3,27.9,37.9,40.2,35.8,79.2-47.7,158.6-122.9,111.3h0Z"/>
  <path class="st1" d="M1218,188h-75c1.1,24.1,30.9,34.5,50.7,25.2,2.9-1.4,10.4-8.7,12.3-7.7,2.2,1.1,6.8,6.7,5.5,9.5-2.4,5.2-15.8,11.5-21.3,12.8-35.4,8-67.7-16.6-61-54,6.7-37.4,56.6-50,79.7-20.2,2.6,3.3,9,16.3,9,20v14.5h0ZM1205,177c-4.3-36.9-58.8-37.4-62,0h62Z"/>
  <path class="st0" d="M542,161c-9.9-.4-20.9-.7-26.8,8.7-1,1.6-4.2,9.5-4.2,10.8v46c0,.1-1.4,1.5-1.5,1.5h-24c-.1,0-1.5-1.4-1.5-1.5v-88c0-.1,1.4-1.5,1.5-1.5h23c2.3,0,1.3,9,1.5,11,5.4-4.6,10.1-8.5,17.2-10.3,2.1-.5,14.8-3.1,14.8-.2v23.5Z"/>
  <path class="st0" d="M269,149c20.3-24.9,39.5-50.8,60-75.5-5.8-.1-19.3,9.6-23.5,9.5-1.4,0-9.6-6.3-11.2-7.7-.7-.6-1.9,0-1.3-2.3l67-28-11,71c-1.2,1.3-12.6-7.7-12.9-8.6-1.1-3.7,5-19.1,3.4-24.3-22.2,27-44.4,53.9-66.5,81-.5-4.7,2-13.4-4-15h0Z"/>
  <path class="st1" d="M1083,139c-.2-12.3.9-28,13.3-34.2,7.2-3.6,20.1-4,27.7-1.3,9.3,3.4,4.7,6.1,3,13.5-12.4-6-27.5-7-29.7,9.8-.3,2.1-1.1,12.2,1.2,12.2h25.5v11h-25.5c-.1,0-1.5,1.4-1.5,1.5v75c0,1.8-14,3.4-14-1v-75.5h-16v-11h16Z"/>
  <path class="st1" d="M993,103h13c.2,11.5-.3,23,0,34.5,0,2.6,1,5.1,1.1,7.9.5,27.2-1.1,54.4-1,81.5h-13v-124h0Z"/>
  <path class="st1" d="M1050,139v87.5c0,2.2-14,2.2-14,0v-87.5h14Z"/>
  <path class="st1" d="M1039.7,102.2c18.6-4.2,17.1,23.9-.8,18.3-8.4-2.6-7.5-16.4.8-18.3Z"/>
</svg>